<svg xmlns="http://www.w3.org/2000/svg" width="94" height="40" viewBox="0 0 94 40" fill="none"><path d="M50.3936 0.518956C50.7773 0.859738 50.9715 1.36734 50.9761 2.04175L50.9766 30.6435C50.9766 32.8047 51.4108 34.1363 51.915 34.8182C52.2885 35.3234 52.7975 35.6309 53.8167 35.4989L53.8162 35.4953C55.242 35.2242 55.9682 35.7431 56.281 37.1151C56.4788 38.2349 55.9631 39.6958 54.4498 39.9101L54.4491 39.9048C51.9629 40.2454 49.7907 39.4086 48.3594 37.473C47.0428 35.6926 46.5469 33.2443 46.5469 30.6435L46.5469 2.07269H46.5432C46.5432 1.38075 46.738 0.862838 47.1275 0.518956C47.4806 0.172985 48.0055 0 48.7023 0C49.4402 0 50.004 0.172985 50.3936 0.518956Z" fill="#FF725C"/><path d="M62.306 2.04175C62.3014 1.36734 62.1073 0.859738 61.7235 0.518956C61.334 0.172985 60.7702 0 60.0323 0C59.3355 0 58.8106 0.172985 58.4575 0.518956C58.068 0.862838 57.8732 1.38075 57.8732 2.07269H57.8768L57.8769 30.6435C57.8769 33.2443 58.3728 35.6926 59.6893 37.473C61.1206 39.4086 63.2929 40.2454 65.7791 39.9048L65.7798 39.9101C67.2931 39.6958 67.8089 38.2349 67.611 37.1151C67.2982 35.7431 66.572 35.2242 65.1462 35.4953L65.1467 35.4989C64.1275 35.6309 63.6185 35.3234 63.245 34.8182C62.7407 34.1363 62.3066 32.8047 62.3066 30.6435L62.306 2.04175Z" fill="#FF725C"/><path d="M78.1884 13.7302C80.9484 13.2981 83.7737 13.762 86.2533 15.0544C86.2844 15.0709 86.3105 15.0954 86.3289 15.1255C86.3474 15.1556 86.3575 15.1901 86.3582 15.2255C86.3589 15.2609 86.3502 15.2958 86.333 15.3266C86.3158 15.3574 86.2906 15.3831 86.2602 15.4009C85.9745 15.5667 85.7116 15.7693 85.4781 16.0035C84.8621 16.6213 84.4738 17.4315 84.3771 18.3007C84.3744 18.3326 84.364 18.3652 84.3469 18.3923C84.3298 18.4193 84.3064 18.4418 84.2787 18.4578C84.2511 18.4738 84.22 18.4828 84.1881 18.4841C84.1563 18.4853 84.1246 18.4788 84.0958 18.4651C82.4032 17.6686 80.5079 17.4131 78.6663 17.7332C76.8247 18.0533 75.1252 18.9335 73.7973 20.255C72.4693 21.5765 71.5768 23.2756 71.2404 25.1229C70.9039 26.9703 71.1397 28.8769 71.9158 30.5853C71.9291 30.6135 71.9359 30.6454 71.9349 30.6767C71.9339 30.7079 71.9255 30.7385 71.9104 30.7658C71.8953 30.7931 71.874 30.8165 71.8481 30.8339C71.8222 30.8512 71.7926 30.8621 71.7617 30.8657C70.9493 30.9843 70.1948 31.363 69.6133 31.9453C69.3414 32.2232 69.1135 32.5421 68.9384 32.8898C68.9221 32.9231 68.8965 32.9519 68.8652 32.9716C68.8339 32.9912 68.7977 33.0017 68.7608 33.0017C68.7238 33.0017 68.6877 32.9912 68.6563 32.9716C68.625 32.9519 68.5998 32.9239 68.5836 32.8905C67.2865 30.4045 66.8116 27.566 67.2295 24.7906C67.6474 22.0152 68.9354 19.4461 70.9063 17.457C72.8773 15.4678 75.4283 14.1622 78.1884 13.7302Z" fill="#FF725C"/><path d="M88.1081 16.4341C86.7557 16.4341 85.6594 17.5358 85.6594 18.8947C85.6594 20.2536 86.7557 21.3553 88.1081 21.3553C89.4604 21.3553 90.5568 20.2536 90.5568 18.8947C90.5568 17.5358 89.4604 16.4341 88.1081 16.4341Z" fill="#FF725C"/><path d="M91.6205 20.6613C91.651 20.6434 91.6857 20.6339 91.721 20.6339C91.7563 20.6339 91.791 20.6434 91.8214 20.6613C91.8517 20.6791 91.8767 20.7045 91.8939 20.7351C93.1801 23.2267 93.6419 26.0657 93.2119 28.8392C92.782 31.613 91.4826 34.1767 89.5027 36.1573C87.5228 38.1379 84.9657 39.4321 82.2034 39.8518C79.441 40.2714 76.6175 39.7946 74.1434 38.4906C74.1103 38.4743 74.0807 38.4481 74.0612 38.4167C74.0416 38.3852 74.0313 38.3488 74.0313 38.3117C74.0313 38.2746 74.0416 38.2383 74.0612 38.2068C74.0807 38.1753 74.1087 38.15 74.1418 38.1337C74.4885 37.9554 74.8066 37.7234 75.0825 37.4473C75.6618 36.8636 76.038 36.1076 76.1551 35.2917C76.1588 35.2606 76.1699 35.2292 76.1872 35.2032C76.2045 35.1771 76.2277 35.1556 76.2549 35.1403C76.2821 35.125 76.3125 35.1164 76.3437 35.1152C76.3748 35.114 76.4058 35.1202 76.4341 35.1334C78.1351 35.9148 80.0341 36.1527 81.874 35.8146C83.7138 35.4765 85.4059 34.5788 86.7215 33.243C88.0372 31.9072 88.9129 30.1976 89.2303 28.3455C89.5477 26.4933 89.2913 24.5877 88.4961 22.8867C88.4824 22.8577 88.476 22.8259 88.4772 22.7938C88.4785 22.7618 88.4875 22.7306 88.5034 22.7028C88.5193 22.675 88.5416 22.6515 88.5686 22.6344C88.5955 22.6172 88.6262 22.6068 88.658 22.6041C89.5228 22.507 90.3307 22.1168 90.9455 21.4979C91.177 21.2711 91.379 21.0157 91.5465 20.7378L91.5476 20.7359C91.5649 20.705 91.59 20.6793 91.6205 20.6613Z" fill="#FF725C"/><path d="M72.366 32.2516C71.0136 32.2516 69.9173 33.3533 69.9173 34.7122C69.9173 36.0711 71.0136 37.1728 72.366 37.1728C73.7184 37.1728 74.8147 36.0711 74.8147 34.7122C74.8147 33.3533 73.7184 32.2516 72.366 32.2516Z" fill="#FF725C"/><path fill-rule="evenodd" clip-rule="evenodd" d="M25.393 38.4198C27.3952 39.4593 29.7811 39.979 32.5508 39.979C34.3527 39.979 36.138 39.694 37.9066 39.124C39.0954 38.7479 40.1279 38.1698 41.0378 37.5023C42.0068 36.8604 41.9366 35.6197 41.4853 34.7127C40.9794 33.696 39.5424 33.3009 38.444 34.0461C38.2453 34.1745 38.0714 34.2895 37.9144 34.3933C37.2573 34.8277 36.8957 35.0668 36.2462 35.2766C34.8447 35.7125 33.9241 35.994 32.4892 35.994C30.5872 35.994 29.1304 35.8043 27.7956 35.1002C26.4608 34.396 25.443 33.3565 24.7423 31.9818C24.1798 30.8782 23.843 29.5369 23.732 27.958H41.1602C42.0724 27.958 42.812 27.2148 42.812 26.2982C42.812 23.6492 42.3615 21.3858 41.4605 19.508C40.5929 17.5967 39.3082 16.1381 37.6063 15.1321C35.9378 14.0927 33.9189 13.5729 31.5497 13.5729C29.0803 13.5729 26.9113 14.143 25.0426 15.283C23.1739 16.3896 21.8898 17.932 20.8553 19.9104C19.8209 21.8888 19.3036 24.2024 19.3036 26.8514C19.3036 29.601 19.8376 31.965 20.9054 33.9434C22.0066 35.8882 23.3908 37.3803 25.393 38.4198ZM23.7624 24.7892C23.8884 23.5076 24.1817 22.3676 24.6422 21.369C25.3096 19.9942 26.2272 18.9547 27.3952 18.2506C28.5965 17.5129 30.0147 17.144 31.6498 17.144C33.9189 17.144 35.6708 17.865 36.9055 19.3068C38.0105 20.5972 38.621 22.4247 38.7371 24.7892H23.7624Z" fill="#FF725C"/><path d="M2.32169 39.9789C1.00638 39.9789 0 39.1825 0 37.5456V2.63498C0 1.80716 0.223121 1.16851 0.669361 0.71906C1.1156 0.269611 1.75167 0.0448982 2.57758 0.0448982H20.8459C21.5345 0.0448982 22.0499 0.217874 22.3921 0.563845C22.7364 0.877414 22.9333 1.57671 22.9333 2.19548C22.9333 2.85084 22.7364 3.55682 22.3921 3.90279C22.0478 4.24876 21.5324 4.42123 20.8459 4.42018H4.79317V18.338H14.7602C15.4124 18.338 15.9107 18.511 16.255 18.8569C16.4311 19.0425 16.5676 19.2622 16.6562 19.5027C16.7447 19.7432 16.7834 20.395 16.7699 20.6511C16.7699 21.3064 16.5982 21.8071 16.255 22.1531C15.9117 22.4991 15.4135 22.6715 14.7602 22.6705H4.79317V37.5456C4.79317 39.2734 3.8336 39.9789 2.32169 39.9789Z" fill="#FF725C"/></svg>
