<svg xmlns="http://www.w3.org/2000/svg" width="30" height="31" viewBox="0 0 30 31" fill="none"><path fill-rule="evenodd" clip-rule="evenodd" d="M12.6756 0.178812C15.8255 -0.312561 19.0499 0.214993 21.8798 1.68478C21.9152 1.70356 21.945 1.73149 21.9661 1.76566C21.9872 1.79988 21.9987 1.83914 21.9995 1.87938C22.0003 1.91963 21.9904 1.95934 21.9708 1.9944C21.9511 2.02947 21.9224 2.05863 21.8877 2.07887C21.5616 2.26742 21.2616 2.49782 20.9951 2.76419C20.2921 3.46684 19.8489 4.38825 19.7385 5.37673C19.7355 5.41304 19.7236 5.4501 19.704 5.48088C19.6845 5.51165 19.6578 5.53722 19.6263 5.5554C19.5947 5.57358 19.5593 5.58383 19.5229 5.58527C19.4865 5.58672 19.4503 5.57932 19.4175 5.5637C17.4858 4.65792 15.3228 4.36728 13.221 4.73133C11.1192 5.09538 9.17963 6.09643 7.66407 7.59931C6.14852 9.1022 5.12998 11.0345 4.746 13.1354C4.36202 15.2364 4.63105 17.4046 5.51682 19.3476C5.53202 19.3797 5.53981 19.416 5.53867 19.4515C5.53753 19.487 5.52795 19.5218 5.51071 19.5529C5.49348 19.584 5.46908 19.6105 5.43956 19.6303C5.41005 19.65 5.37625 19.6624 5.34098 19.6665C4.41382 19.8014 3.55264 20.2321 2.88899 20.8943C2.57879 21.2103 2.31864 21.573 2.11875 21.9684C2.10023 22.0063 2.07102 22.0391 2.03525 22.0614C1.9995 22.0838 1.9582 22.0956 1.91607 22.0956C1.87393 22.0956 1.83264 22.0838 1.79689 22.0614C1.76114 22.0391 1.73238 22.0072 1.71386 21.9693C0.233525 19.142 -0.308447 15.9138 0.168474 12.7575C0.645404 9.60111 2.11542 6.67939 4.36476 4.41717C6.61411 2.15495 9.52551 0.670197 12.6756 0.178812ZM23.9966 3.25393C22.4531 3.25393 21.2019 4.50679 21.2019 6.05227C21.2019 7.59775 22.4531 8.8506 23.9966 8.8506C25.54 8.8506 26.7912 7.59775 26.7912 6.05227C26.7912 4.50679 25.54 3.25393 23.9966 3.25393ZM28.0052 8.06139C28.04 8.041 28.0796 8.03024 28.1199 8.03024C28.1602 8.03024 28.1998 8.041 28.2346 8.06139C28.269 8.0816 28.2976 8.11055 28.3173 8.14532C29.7852 10.979 30.3121 14.2076 29.8215 17.3618C29.3308 20.5164 27.8478 23.4319 25.5882 25.6844C23.3286 27.9369 20.4103 29.4088 17.2577 29.886C14.1051 30.3633 10.8827 29.821 8.05916 28.338C8.02132 28.3194 7.9876 28.2897 7.9653 28.2539C7.94299 28.2181 7.93115 28.1768 7.93115 28.1346C7.93115 28.0924 7.94299 28.0511 7.9653 28.0152C7.9876 27.9795 8.0195 27.9506 8.05734 27.9321C8.45295 27.7293 8.81601 27.4655 9.1309 27.1515C9.79198 26.4877 10.2213 25.6279 10.355 24.7001C10.3592 24.6647 10.3719 24.6289 10.3917 24.5993C10.4114 24.5697 10.4379 24.5452 10.4689 24.5278C10.5 24.5104 10.5347 24.5007 10.5702 24.4993C10.6058 24.4979 10.6412 24.505 10.6734 24.52C12.6147 25.4087 14.782 25.6792 16.8818 25.2947C18.9815 24.9101 20.9127 23.8893 22.4142 22.3701C23.9157 20.8509 24.9151 18.9067 25.2774 16.8003C25.6396 14.694 25.347 12.5268 24.4394 10.5922C24.4238 10.5593 24.4165 10.523 24.4179 10.4866C24.4193 10.4502 24.4296 10.4147 24.4477 10.3831C24.4659 10.3515 24.4914 10.3248 24.5221 10.3053C24.5529 10.2857 24.5879 10.2739 24.6241 10.2709C25.6111 10.1604 26.5332 9.7166 27.2349 9.01284C27.4991 8.75488 27.7296 8.46441 27.9208 8.14834C27.9405 8.11315 27.9705 8.08178 28.0052 8.06139ZM6.03061 21.2426C4.48718 21.2426 3.23598 22.4955 3.23598 24.041C3.23598 25.5865 4.48718 26.8393 6.03061 26.8393C7.57405 26.8393 8.82524 25.5865 8.82524 24.041C8.82524 22.4955 7.57405 21.2426 6.03061 21.2426Z" fill="#FF725C"/></svg>